<svg width="180" height="252" viewBox="0 0 180 252" fill="none" xmlns="http://www.w3.org/2000/svg">
<path d="M116.963 146.669H125.199V169H10.9824V83.1542H125.199V105.485H116.963V91.391H41.5501V160.763H116.963V146.669ZM33.3133 91.391H19.2192V160.763H33.3133V91.391Z" fill="#D8D8D8"/>
<path d="M63.0374 105.331L54.8007 105.331L54.8007 83L169.018 83L169.018 168.846L54.8006 168.846L54.8007 146.515L63.0374 146.515L63.0374 160.609L138.45 160.609L138.45 91.2368L63.0374 91.2368L63.0374 105.331ZM146.687 160.609L160.781 160.609L160.781 91.2368L146.687 91.2368L146.687 160.609Z" fill="#D8D8D8"/>
<path d="M87.7228 152V145.908H75.5581V141.256H87.7228V127.023H80.2322L74 121.263V110.852L80.2322 105.092H87.7228V99H92.9963V105.092H103.723V109.744H92.9963V122.592H99.7678L106 128.352V140.093L99.7678 145.908H92.9963V152H87.7228ZM82.6891 122.592H87.7228V109.744H82.7491L79.4532 112.79V119.602L82.6891 122.592ZM92.9963 141.256H97.2509L100.547 138.21V130.069L97.3109 127.023H92.9963V141.256Z" fill="#D8D8D8"/>
</svg>
